<?xml version="1.0" standalone="no"?><!DOCTYPE svg PUBLIC "-//W3C//DTD SVG 1.1//EN" "http://www.w3.org/Graphics/SVG/1.1/DTD/svg11.dtd"><svg t="1631804894795" class="icon" viewBox="0 0 1024 1024" version="1.1" xmlns="http://www.w3.org/2000/svg" p-id="24518" xmlns:xlink="http://www.w3.org/1999/xlink" width="200" height="200"><defs><style type="text/css"></style></defs><path d="M684.220387 228.135884c-38.623669 0-84.256986 8.108678-130.863467 22.694885a138.611941 138.611941 0 0 1-41.407062 6.337335 138.613988 138.613988 0 0 1-41.408085-6.337335c-46.606481-14.585183-92.239797-22.694885-130.863467-22.694885-152.228053 0-275.632641 125.33352-275.632641 279.94076 0 154.606217 123.404588 279.94076 275.632641 279.94076 38.628786 0 84.268242-8.110725 130.880863-22.700001a138.489144 138.489144 0 0 1 41.390689-6.335289c13.947663 0 27.895327 2.112104 41.389666 6.335289 46.612621 14.589276 92.2531 22.700001 130.880863 22.700001 152.229077 0 275.633664-125.334543 275.633664-279.94076 0-154.608264-123.405611-279.94076-275.633664-279.94076z m0 531.885909c-35.375695 0-77.742619-7.407714-122.519428-21.421892a166.410054 166.410054 0 0 0-49.751101-7.613398 166.411077 166.411077 0 0 0-49.752124 7.613398c-44.775786 14.014178-87.142709 21.421892-122.519428 21.421892-136.548956 0-247.639077-113.023146-247.639077-251.946172s111.090121-251.946172 247.639077-251.946173c35.370579 0 77.732385 7.405667 122.503055 21.416776a166.459173 166.459173 0 0 0 49.768497 7.615444c16.876366 0 33.621748-2.562359 49.768497-7.615444 44.769646-14.011108 87.131453-21.416775 122.502032-21.416776 136.548956 0 247.6401 113.023146 247.6401 251.946173s-111.091144 251.946172-247.6401 251.946172z" p-id="24519"></path><path d="M375.505279 545.651424c11.19497-19.956517 18.780739-43.918255 22.553669-71.25588l0.157589-1.12052-1.066285-0.382717c-9.15859-3.308349-17.735943-7.462972-25.554002-12.370749 40.555671-8.118911 78.467119-12.712533 112.741737-13.654998l2.658549-0.068561-1.571798-2.145873c-7.565303-10.374278-13.307074-20.421098-17.065677-29.852912l-0.369414-0.929162-1.011027 0.054235c-49.714262 2.857071-114.566292 14.475689-192.691627 34.500769-30.064736 6.437619-53.794184 11.45489-74.850755 15.8285-3.670599 1.24434-4.927219 1.38044-5.296633 1.38044h-3.342118l2.344395 2.378164c0.997724 1.011027 2.898003 2.433422 5.870707 4.415566 9.356089 7.503904 15.501042 14.570857 18.261923 20.995173l0.396019 0.943489 1.011027-0.096191c10.654664-0.956791 31.875988-5.672186 64.920592-14.420431 27.9117-8.365528 55.29742-14.544251 81.439824-18.384719-1.11438 24.207331-6.567579 45.654806-16.22452 63.779605-23.441898-17.687848-45.305859-31.411407-65.016783-40.802288l-1.148149-0.546445-0.65594 1.079588c-5.617951 9.376555-11.802814 16.990976-18.377556 22.635533l-1.811252 1.558495 2.234901 0.819668c17.721617 6.547113 39.420825 21.104667 64.524572 43.289946-24.679076 24.972764-64.175625 42.35976-117.430526 51.696406l-3.245927 0.574074 2.65855 1.941212c10.327206 7.518231 18.418488 16.075117 24.050765 25.438369l0.471744 0.778736 0.908696-0.109494c50.315966-6.628978 90.399893-26.258037 119.173217-58.325383 37.910425 32.026414 77.81732 55.018058 118.653377 68.317968l1.093914 0.369414 0.560772-1.01205c4.620227-8.337899 13.628392-16.374946 26.770713-23.893176l2.604315-1.489934-2.816139-1.038656c-43.367717-16.007579-85.925998-39.859823-126.515439-70.875211zM335.605547 424.790776l0.977258 1.24434 1.12052-1.12052c10.374278-10.374278 18.97926-17.550725 25.561166-21.310352l1.408069-0.806365-1.004887-1.270946c-14.427594-18.261922-34.376948-34.814923-59.295477-49.194422l-0.990561-0.574075-0.75827 0.874927a114.89068 114.89068 0 0 1-22.711257 19.86135l-1.729388 1.148149 1.722224 1.175779c23.707958 16.141632 42.454928 32.954553 55.700603 49.972135zM839.35463 417.792385l-0.314155-1.052982-1.093915 0.054235c-38.894845 1.818415-72.671113 4.524037-100.487645 8.037047 6.472412-5.9055 13.095249-12.643971 19.724227-20.079314l1.415232-1.585102-2.015913-0.670265c-4.783956-1.599428-9.91686-4.209882-15.295358-7.791454 14.407128-1.599428 35.799344-2.419096 63.690578-2.419096h2.993171l-1.920746-2.296299c-4.681626-5.590322-9.438976-14.639418-14.133905-26.900673l-0.375554-0.984421-1.052982 0.096191c-31.035854 2.665713-58.687634 6.192026-82.300424 10.498099 4.03899-3.157923 7.832386-5.809309 11.32493-7.900948l1.435698-0.874926-1.107217-1.257644c-14.407128-16.307408-30.003338-28.977985-46.357817-37.644365l-0.915859-0.49221-0.731664 0.737804c-8.475022 8.475022-15.144932 14.202467-19.833721 17.017582l-1.961678 1.175779 1.934049 1.216711c14.427594 9.03477 26.436092 19.491936 35.723619 31.110555-2.692319 0.737804-6.308683 1.489934-10.791787 2.227737-17.756409 2.966565-31.383778 5.317099-41.683355 7.18975-19.86749 3.799536-33.789571 5.727445-41.396829 5.727444h-3.717671l2.795672 2.446725c7.490601 6.574742 13.675464 14.18814 18.371417 22.622231l0.403182 0.711197h0.819668c6.807033 0 16.771989-1.421372 30.44029-4.347004 3.034103-0.615007 5.966898-1.216711 8.837272-1.790786-4.804423 2.118244-9.411347 3.731998-13.764491 4.824889l-1.462305 0.355087 0.477884 1.435698c2.671852 8.023744 6.628978 15.733333 11.769045 22.949689-17.290805 2.76088-32.483832 5.536087-45.14827 8.269337-5.692652 0.943488-10.115382 1.926886-13.06762 2.898003-20.948101 5.713119-38.738279 9.075703-52.865022 10.005888l-4.804422 0.314155 4.224208 2.309602c10.320043 5.64558 18.869766 12.766768 25.417903 21.186532l0.423648 0.533142h0.683569c4.927219 0 12.514012-1.408069 23.175839-4.319375 3.998057-0.013303 6.957459-0.533143 8.755407-1.462305 103.705943-24.740474 189.595103-35.320437 255.267825-31.575136l2.645246 0.150426-1.367137-2.26867c-5.646604-9.388834-9.952676-18.943444-12.782117-28.38856zM700.559517 430.122201l-1.114381 1.12052-19.47147 3.075036v-0.328482c0-0.765433-0.225127-1.421372-0.62831-1.900279l6.936993-8.337899-10.457166-8.707313-6.479575 3.882424c-0.423649-0.956791-1.155313-2.282996-2.405793-4.182252-0.676405-2.679016-1.387603-4.947685-2.104941-6.779404 27.734668-5.495154 48.237631-9.171893 61.059658-10.962679-9.724479 13.996782-18.253736 25.15082-25.335015 33.120328z" p-id="24520"></path><path d="M827.858808 562.861388l-0.308015-1.038656-1.073449 0.040932c-32.990369 0.956791-68.741617 4.26514-106.289791 9.827833v-9.827833h-1.400906c-6.588045 0-13.545504-0.874927-20.736277-2.597151 14.899338-2.515287 29.094642-5.030573 42.270732-7.51823 4.551666 0.943488 8.692986 2.337231 12.322654 4.155646l1.22285 0.601704 0.635474-1.202385c8.625448-16.293081 18.808368-44.423769 30.27042-83.572394l0.321318-1.107217-31.623231-16.566304-0.49221 0.109494c-17.920138 3.77293-40.651862 9.103332-67.668169 15.842826-11.338233 3.786233-22.341844 6.178723-32.717146 7.107885l-3.745301 0.341785 3.048429 2.186805c6.53381 4.702092 12.205996 10.853186 16.87432 18.275225l0.410345 0.65594h0.772597c2.050706 0 5.52176-0.49221 10.27911-1.449002 3.704368-0.601704 8.761548-1.421372 9.827833-1.421372l0.423649-0.054236c22.690792-7.258311 40.836057-11.536754 53.985542-12.739138-1.982144 14.310937-6.117324 28.362978-12.309351 41.813314-22.438035 5.590322-43.453674 10.265808-62.501496 13.914918-0.232291-0.833995-0.62831-1.818415-1.189081-2.993171-0.033769-1.189082-0.239454-2.242064-0.622171-3.143596 30.467919-8.283664 52.529377-13.901615 65.596998-16.71673l2.303462-0.492211-1.538029-1.790786c-5.625114-6.547113-9.909697-12.725836-12.732999-18.384719l-0.540306-1.093914-1.155313 0.396019c-2.76088 0.929162-8.987698 2.364861-18.617009 4.306073-19.095917 5.439896-33.543977 9.199523-42.974767 11.154037-0.970094-6.396687-2.344395-13.669324-4.107552-21.61018l-0.245593-1.093914h-1.12052c-7.538697 0-18.070564-1.449002-31.309077-4.278443l-2.071172-0.451278 0.403183 2.091637c7.65433 39.257096 18.8493 69.410859 33.270755 89.599668l0.963954 1.339508 1.168616-1.175779c4.538363-4.538363 9.595542-7.312546 15.247262-8.283664 5.105275-1.681292 10.279111-3.0208 15.397688-3.964288v14.352893c-19.614733 2.816139-36.626175 5.672186-50.507324 8.460695-6.615675 0.943488-11.980869 1.913583-15.889898 2.883677-22.834055 4.756327-43.084261 8.133238-60.190871 10.019191l-3.691065 0.410346 3.034103 2.13257c9.383718 6.574742 16.97665 14.652721 22.581297 24.00267l0.410346 0.669243h0.793062c7.757684 0 23.339568-2.911306 46.208415-8.638751 21.904892-3.799536 39.291888-6.697539 51.804876-8.638751 2.905166-0.711198 5.173836-1.14815 6.875595-1.311879-0.054235 7.353478-0.51984 17.20894-1.428536 30.126135v26.99584l1.127684 0.218988c14.21577 2.842745 24.7548 5.713119 31.315216 8.543583l1.87265 0.806366 0.081865-2.03638c0.936325-23.865547 1.421372-47.143717 1.441838-69.219501 45.073568-5.577019 85.164658-7.886621 119.214149-7.011694l2.638084 0.081865-1.415233-2.227738c-6.583952-10.336416-11.361769-20.36891-14.204513-29.814026z" p-id="24521"></path></svg>