<?xml version="1.0" standalone="no"?><!DOCTYPE svg PUBLIC "-//W3C//DTD SVG 1.1//EN" "http://www.w3.org/Graphics/SVG/1.1/DTD/svg11.dtd"><svg t="1631630839498" class="icon" viewBox="0 0 1024 1024" version="1.1" xmlns="http://www.w3.org/2000/svg" p-id="10059" id="mx_n_1631630839499" xmlns:xlink="http://www.w3.org/1999/xlink" width="200" height="200"><defs><style type="text/css"></style></defs><path d="M307.8 71H63.3v733.4h244.5c41.7 0 83.4 15.9 115.3 47.7 31.8 31.8 47.7 73.6 47.7 115.3V234c0-41.7-15.9-83.4-47.7-115.3C391.2 86.9 349.5 71 307.8 71zM430 804.4c-35.1-26.4-77.6-40.7-122.2-40.7H104.1v-652h203.7c32.7 0 63.4 12.7 86.4 35.8 23.1 23.1 35.8 53.8 35.8 86.5v570.4zM715.3 71c-41.7 0-83.4 15.9-115.3 47.7-31.8 31.8-47.7 73.5-47.7 115.3v733.4c0-41.7 15.9-83.4 47.7-115.3 31.8-31.8 73.5-47.7 115.3-47.7h244.5V71H715.3zM919 763.7H715.3c-44.7 0-87.1 14.3-122.2 40.7V234c0-32.6 12.7-63.3 35.8-86.4 23.1-23.1 53.8-35.8 86.5-35.8H919v651.9z" fill="#1AAD16" p-id="10060"></path></svg>